<svg xmlns="http://www.w3.org/2000/svg" viewBox="0 0 116.73 58.15"><defs><style>.cls-1{fill:#0f1010;}.cls-2{fill:#22639e;}</style></defs><g id="Layer_2" data-name="Layer 2"><g id="Layer_1-2" data-name="Layer 1"><path class="cls-1" d="M58.37.06c.36,0,.72-.06,1.08-.06h57.28V58.09H102.18c4.32-3.3,6.23-7.7,6.89-12.86L98.7,44.6c-.37,1.17-.67,2.39-1.13,3.55-2.59,6.67-10.78,6-13.64,2a12.61,12.61,0,0,1-2-6,36.45,36.45,0,0,1,.59-13.53,12.2,12.2,0,0,1,.77-2.12,7.25,7.25,0,0,1,8-4.47c3.25.41,5.37,2.55,6,6.16.2,1.05.29,2.12.44,3.31L109,32.75c-1-11.45-7.52-16.9-17-17.41-4.84-.26-9.48.47-13.52,3.39A20.75,20.75,0,0,0,70.26,32,29.79,29.79,0,0,0,71.72,49.9a22.17,22.17,0,0,0,2.67,4.49,47,47,0,0,0,3.47,3.76H76.7l-18.33-.06Z"/><path class="cls-2" d="M58.37.06v58H41.7c.94-1,1.91-1.86,2.71-2.86C50.17,48,47.53,38.09,38.86,35c-3.62-1.3-7.47-1.93-11.21-2.9A23.56,23.56,0,0,1,24.13,31a3.46,3.46,0,0,1-2.24-3.6,3.32,3.32,0,0,1,2.5-3.16,11.88,11.88,0,0,1,8,.07,7.47,7.47,0,0,1,4.28,4.64l9.49-3a14.71,14.71,0,0,0-5.06-7,19.24,19.24,0,0,0-10.63-3.54c-4.57-.32-9,.11-13,2.61a13.57,13.57,0,0,0-6.09,15.31,10.33,10.33,0,0,0,5.46,6.61c3.56,1.91,7.45,2.77,11.35,3.63a45.93,45.93,0,0,1,5.28,1.48A3.54,3.54,0,0,1,36,48.17,4,4,0,0,1,34,52,10.21,10.21,0,0,1,27.7,53.3c-2.56-.11-5.05-.61-6.86-2.61a29.34,29.34,0,0,1-2.38-3.61l-10,2.14a15.16,15.16,0,0,0,5.91,8.84H0V.08C.33.06.67,0,1,0H57.54C57.82,0,58.1,0,58.37.06Z"/></g></g></svg>