<svg xmlns="http://www.w3.org/2000/svg" viewBox="0 0 146.03 79.44">
  <defs>
    <style>.cls-1{fill:#0f1010;}.cls-2{fill:#22639e;}</style>
  </defs>
  <g id="Layer_2" data-name="Layer 2">
    <g id="Layer_1-2" data-name="Layer 1">
      <path class="cls-1" d="M67.09,79.44s0-.1,0-.11c-4.12-1.6-5.61-4.87-4.15-9.12a5.36,5.36,0,0,1,5.78-3.66,5.13,5.13,0,0,1,5.08,4.51,15.11,15.11,0,0,1,0,4,4.67,4.67,0,0,1-4.29,4.13,1.68,1.68,0,0,0-.47.22Zm4.43-6.36a18.62,18.62,0,0,0-.3-1.9,2.83,2.83,0,0,0-3.13-2.34,2.78,2.78,0,0,0-2.88,2.5,11.81,11.81,0,0,0,0,3.41,2.61,2.61,0,0,0,2.6,2.35,2.89,2.89,0,0,0,3.27-1.83A12.74,12.74,0,0,0,71.52,73.08Z"/>
      <path class="cls-1" d="M0,75.85l2.17-.54c.92,1.68,2.1,2.27,3.68,1.9.79-.19,1.45-.54,1.51-1.45S6.73,74.45,6,74.23c-.92-.27-1.86-.43-2.78-.7-2.3-.69-3.07-1.66-3-3.68C.33,68.14,1.53,67,3.66,66.63a4.88,4.88,0,0,1,5.53,2.51,6.39,6.39,0,0,1,.26.88l-2.22.46c-.9-1.64-2-2.12-3.58-1.65-1,.3-1.21.92-.9,2,.46.2,1,.49,1.59.68,1,.3,1.93.47,2.87.78C9.26,73,10,74.16,9.82,76.14a3.75,3.75,0,0,1-3.35,3.08,4.6,4.6,0,0,0-.72.22H3.83c-1.47-.58-3-1.09-3.83-2.63Z"/>
      <path class="cls-1" d="M54.63,79.44c-.07-.08-.14-.21-.22-.23-5-.94-5.16-8.23-2.75-10.89a5.47,5.47,0,0,1,5.9-1.5,4.39,4.39,0,0,1,3.25,4H58.59A9.52,9.52,0,0,0,57,69.15a2.61,2.61,0,0,0-3.85,1.29A6.65,6.65,0,0,0,53,75.11a2.71,2.71,0,0,0,5.16.19c.06-.14.1-.29.16-.45.22,0,.42-.06.61-.06.6,0,1.19,0,1.79,0a4.77,4.77,0,0,1-4,4.42,1.8,1.8,0,0,0-.46.23Z"/>
      <path class="cls-1" d="M72.66.06C73,0,73.38,0,73.74,0H131V58.09H116.47c4.32-3.3,6.23-7.7,6.89-12.86L113,44.6c-.37,1.17-.67,2.39-1.13,3.55-2.6,6.67-10.78,6-13.64,2a12.61,12.61,0,0,1-2-6,36.45,36.45,0,0,1,.59-13.53,12.2,12.2,0,0,1,.77-2.12,7.25,7.25,0,0,1,8-4.47c3.24.41,5.37,2.55,6,6.16.2,1.05.29,2.12.44,3.31l11.18-.68c-1-11.45-7.52-16.9-17-17.41-4.84-.26-9.48.47-13.52,3.39A20.75,20.75,0,0,0,84.55,32,29.79,29.79,0,0,0,86,49.9a22.6,22.6,0,0,0,2.66,4.49,47.1,47.1,0,0,0,3.48,3.76H91l-18.33-.06Z"/>
      <path class="cls-2" d="M72.66.06v58H56c.94-1,1.91-1.86,2.71-2.86C64.46,48,61.82,38.09,53.15,35c-3.62-1.3-7.47-1.93-11.21-2.9A23.56,23.56,0,0,1,38.42,31a3.46,3.46,0,0,1-2.24-3.6,3.32,3.32,0,0,1,2.49-3.16,11.91,11.91,0,0,1,8,.07,7.47,7.47,0,0,1,4.28,4.64l9.48-3a14.7,14.7,0,0,0-5.05-7,19.24,19.24,0,0,0-10.63-3.54c-4.58-.32-9,.11-13,2.61a13.59,13.59,0,0,0-6.1,15.31,10.37,10.37,0,0,0,5.47,6.61c3.56,1.91,7.45,2.77,11.35,3.63a45.93,45.93,0,0,1,5.28,1.48,3.55,3.55,0,0,1,2.61,3.12,4,4,0,0,1-2,3.82A10.22,10.22,0,0,1,42,53.3c-2.56-.11-5.06-.61-6.86-2.61a28.23,28.23,0,0,1-2.38-3.61l-10,2.14a15.16,15.16,0,0,0,5.91,8.84H14.29V.08c.33,0,.66-.07,1-.07H71.83C72.11,0,72.39,0,72.66.06Z"/>
      <path class="cls-1" d="M84.2,72.45c1.71.92,1.88,2.37,1.55,3.88a3,3,0,0,1-3,2.43c-2.18.1-4.38,0-6.66,0V67.07c2.31,0,4.68-.1,7,0a2.62,2.62,0,0,1,2.34,2.25A2.7,2.7,0,0,1,84.2,72.45Zm-5.75,4.36c1.22,0,2.33.06,3.44,0a1.5,1.5,0,0,0,1.5-1.65,1.26,1.26,0,0,0-1.27-1.42c-1.21-.08-2.43,0-3.67,0Zm0-5.25A25.51,25.51,0,0,0,82,71.5,1.65,1.65,0,0,0,83,70.38a1.43,1.43,0,0,0-.82-1.16,31.32,31.32,0,0,0-3.76-.06Z"/>
      <path class="cls-1" d="M119.61,78.87l-5-7.83v7.81h-2.34V67.05h2.67c1.47,2.34,3,4.75,4.62,7.4V67.06h2.37V78.87Z"/>
      <path class="cls-1" d="M29.49,78.89c0-1.12,0-2.14,0-3.17a1.25,1.25,0,0,0-1.26-1.43c-1-.06-2.05,0-3.19,0v4.58H22.62V67.06c2.3,0,4.68-.14,7,0a2.94,2.94,0,0,1,2.62,2.59,3,3,0,0,1-1.42,3.4c1.92,1.62.92,3.78,1.22,5.79Zm-4.42-9.77v3c1.29,0,2.49.07,3.67,0,.9-.07,1.27-.77,1.2-1.62a1.32,1.32,0,0,0-1.37-1.37C27.42,69.1,26.27,69.12,25.07,69.12Z"/>
      <path class="cls-1" d="M87.74,67c2.19,0,4.34,0,6.48,0a3.35,3.35,0,0,1,1.7,6.14c2,1.56.76,3.76,1.23,5.72H94.71l-.26-4.47-4.31-.24v4.7h-2.4Zm2.43,2.11v3.06c1.22,0,2.37.07,3.51,0A1.38,1.38,0,0,0,95,70.5a1.35,1.35,0,0,0-1.46-1.39Z"/>
      <path class="cls-1" d="M14.16,73.68v3h6.6v2.15h-9V67.05h8.71v2H14.21v2.49h5.7v2.14Z"/>
      <path class="cls-1" d="M143.29,78.86l-.78-2.33h-4.37l-.87,2.35H134.6c1.43-4,2.82-7.88,4.24-11.84h3c1.37,3.85,2.76,7.78,4.2,11.82Zm-3-9.18-1.45,4.64h2.92C141.28,72.8,140.83,71.37,140.29,69.68Z"/>
      <path class="cls-1" d="M103.2,67h3l4.19,11.86h-2.71l-.82-2.35h-4.37l-.87,2.37H99Zm1.44,2.69-1.46,4.65h2.95Z"/>
      <path class="cls-1" d="M126.88,76.81h6.26v2h-9.31a3.42,3.42,0,0,1,.77-3.19c1.79-2.06,3.45-4.24,5.29-6.53H124V67.08h9.11a3.1,3.1,0,0,1-.74,2.9C130.53,72.12,128.83,74.37,126.88,76.81Z"/>
      <path class="cls-1" d="M38.62,75.24,41.17,67H43.8c-1.35,4-2.69,7.91-4,11.87h-2.4l-4-11.85H36Z"/>
      <path class="cls-1" d="M45.65,78.86V67.06h2.44v11.8Z"/>
    </g>
  </g>
</svg>
